# xmcd CD database file
#
# Track frame offsets:
#	150
#	16339
#	49682
#	62608
#	111920
#	125820
#	143107
#	158020
#	169532
#	183503
#	195982
#	205449
#	218660
#	226958
#	246475
#	260029
#	276187
#	289308
#	309390
#	325208
#
# Disc length: 4517 seconds
#
# Revision: 0
# Processed by: cddbd v1.5.2PL0 Copyright (c) Steve Scherf et al.
# Submitted via: CDex 1.51
#
DISCID=2e11a314
DTITLE=Oscar Peterson - Back Home Again CD 5
DYEAR=1900
DGENRE=Jazz
TTITLE0=Sweet Georgia Brown
TTITLE1=Jam Blues
TTITLE2=I've Got A Crush On You
TTITLE3=Stompin' At The Savoy
TTITLE4=Smoke Gets In Your Eyes
TTITLE5=Oh Lady Be Good
TTITLE6=Easy To Love
TTITLE7=( I Don't Stand a ) Ghost Of A Chance With You
TTITLE8=Rockin' In Rythm
TTITLE9=Poor Butterfly
TTITLE10=For You
TTITLE11=Sheik Of Araby
TTITLE12=Whispering
TTITLE13=They Didn't Believe Me
TTITLE14=Gipsy In My Soul
TTITLE15=Brotherhood Of Man
TTITLE16=Time On My Hands
TTITLE17=Broadway
TTITLE18=What Is It ?
TTITLE19=Lover
EXTD=
EXTT0=
EXTT1=
EXTT2=
EXTT3=
EXTT4=
EXTT5=
EXTT6=
EXTT7=
EXTT8=
EXTT9=
EXTT10=
EXTT11=
EXTT12=
EXTT13=
EXTT14=
EXTT15=
EXTT16=
EXTT17=
EXTT18=
EXTT19=
PLAYORDER=
